<svg xmlns="http://www.w3.org/2000/svg" viewBox="0 0 64 64">
  <defs>
    <linearGradient id="catBody" x1="0" y1="0" x2="0" y2="1">
      <stop offset="0" stop-color="#ffb866"/>
      <stop offset="1" stop-color="#e67e22"/>
    </linearGradient>
  </defs>
  <!-- Head + ears -->
  <path fill="url(#catBody)" stroke="#4a2c14" stroke-width="2" stroke-linejoin="round"
    d="M12 22 L4 6 L20 14 Q32 10 44 14 L60 6 L52 22 Q58 36 50 48 Q40 58 32 58 Q24 58 14 48 Q6 36 12 22 Z"/>
  <!-- Inner ears -->
  <path fill="#ffd7a8" d="M10 9 L18 14 L13 18 Z"/>
  <path fill="#ffd7a8" d="M54 9 L46 14 L51 18 Z"/>
  <!-- Eyes -->
  <ellipse cx="23" cy="33" rx="3.6" ry="5" fill="#1a1a1a"/>
  <ellipse cx="41" cy="33" rx="3.6" ry="5" fill="#1a1a1a"/>
  <circle cx="24" cy="31" r="1.1" fill="#fff"/>
  <circle cx="42" cy="31" r="1.1" fill="#fff"/>
  <!-- Nose -->
  <path fill="#d9534f" stroke="#4a2c14" stroke-width="0.8" stroke-linejoin="round"
    d="M29.5 41 L34.5 41 L32 44 Z"/>
  <!-- Mouth -->
  <path stroke="#4a2c14" stroke-width="1.6" stroke-linecap="round" fill="none"
    d="M32 44 L32 46.5 M32 46.5 Q28.5 49 26.5 47 M32 46.5 Q35.5 49 37.5 47"/>
  <!-- Whiskers -->
  <g stroke="#4a2c14" stroke-width="1.1" stroke-linecap="round">
    <line x1="6" y1="39" x2="19" y2="41"/>
    <line x1="6" y1="45" x2="19" y2="44"/>
    <line x1="45" y1="41" x2="58" y2="39"/>
    <line x1="45" y1="44" x2="58" y2="45"/>
  </g>
</svg>
